HIERARCHY
ROOT Hips
{
	OFFSET 0.00000 0.00000 0.00000
	CHANNELS 6 Xposition Yposition Zposition Zrotation Yrotation Xrotation 
	JOINT LHipJoint
	{
		OFFSET 0 0 0
		CHANNELS 3 Zrotation Yrotation Xrotation
		JOINT LeftHip
		{
			OFFSET 1.66553 -1.82942 0.76350
			CHANNELS 3 Zrotation Yrotation Xrotation
			JOINT LeftKnee
			{
				OFFSET 2.41740 -6.64177 0.00000
				CHANNELS 3 Zrotation Yrotation Xrotation
				JOINT LeftAnkle
				{
					OFFSET 2.71614 -7.46254 0.00000
					CHANNELS 3 Zrotation Yrotation Xrotation
					JOINT LeftToe
					{
						OFFSET 0.08005 -0.21993 1.82495
						CHANNELS 3 Zrotation Yrotation Xrotation
						End Site
						{
							OFFSET 0.00000 -0.00000 0.93441
						}
					}
				}
			}
		}
	}
	JOINT RHipJoint
	{
		OFFSET 0 0 0
		CHANNELS 3 Zrotation Yrotation Xrotation
		JOINT RightHip
		{
			OFFSET -1.63725 -1.82942 0.76350
			CHANNELS 3 Zrotation Yrotation Xrotation
			JOINT RightKnee
			{
				OFFSET -2.40538 -6.60872 0.00000
				CHANNELS 3 Zrotation Yrotation Xrotation
				JOINT RightAnkle
				{
					OFFSET -2.73312 -7.50919 0.00000
					CHANNELS 3 Zrotation Yrotation Xrotation
					JOINT RightToe
					{
						OFFSET -0.15567 -0.42769 1.93504
						CHANNELS 3 Zrotation Yrotation Xrotation
						End Site
						{
							OFFSET -0.00000 -0.00000 1.00100
						}
					}
				}
			}
		}
	}
	JOINT lowerback
	{
		OFFSET 0 0 0
		CHANNELS 3 Zrotation Yrotation Xrotation
		JOINT Chest
		{
			OFFSET 0.00326 2.30118 -0.13017
			CHANNELS 3 Zrotation Yrotation Xrotation
			JOINT Chest2
			{
				OFFSET 0.02887 2.30677 0.00834
				CHANNELS 3 Zrotation Yrotation Xrotation
				JOINT lowerneck
				{
					OFFSET 0 0 0
					CHANNELS 3 Zrotation Yrotation Xrotation
					JOINT Neck
					{
						OFFSET 0.12946 1.68326 0.00713
						CHANNELS 3 Zrotation Yrotation Xrotation
						JOINT Head
						{
							OFFSET -0.24364 1.67243 -0.16079
							CHANNELS 3 Zrotation Yrotation Xrotation
							End Site
							{
								OFFSET -0.09229 1.70819 -0.06383
							}
						}
					}
				}
				JOINT LeftCollar
				{
					OFFSET 0 0 0
					CHANNELS 3 Zrotation Yrotation Xrotation
					JOINT LeftShoulder
					{
						OFFSET 3.28104 0.69567 -0.00556
CHANNELS 3 Zrotation Xrotation Yrotation
						JOINT LeftElbow
						{
OFFSET 0 -5.707060 -0.000000
CHANNELS 3 Zrotation Xrotation Yrotation
							JOINT LeftWrist
							{
OFFSET 0 -3.332430 0.000000
CHANNELS 3 Zrotation Xrotation Yrotation
								JOINT lhand
								{
									OFFSET 0 0 0
CHANNELS 3 Zrotation Xrotation Yrotation
									JOINT LFingers
									{
OFFSET 0 -0.792690 0.000000
CHANNELS 3 Zrotation Xrotation Yrotation
										End Site
										{
OFFSET 0 -0.639090 0.000000
										}
									}
								}
								JOINT LThumb
								{
OFFSET 0 0.000000 0.000000
CHANNELS 3 Zrotation Xrotation Yrotation
									End Site
									{
OFFSET 0 -0.648840 0.648840
									}
								}
							}
						}
					}
				}
				JOINT RightCollar
				{
					OFFSET 0 0 0
					CHANNELS 3 Zrotation Yrotation Xrotation
					JOINT RightShoulder
					{
						OFFSET -3.40955 0.64424 0.14010
CHANNELS 3 Zrotation Xrotation Yrotation
						JOINT RightElbow
						{
OFFSET 0 -5.881760 -0.000000
CHANNELS 3 Zrotation Xrotation Yrotation
							JOINT RightWrist
							{
OFFSET 0 -3.281560 0.000000
CHANNELS 3 Zrotation Xrotation Yrotation
								JOINT rhand
								{
									OFFSET 0 0 0
CHANNELS 3 Zrotation Xrotation Yrotation
									JOINT RFingers
									{
OFFSET 0 -0.863130 0.000000
CHANNELS 3 Zrotation Xrotation Yrotation
										End Site
										{
OFFSET 0 -0.695870 0.000000
										}
									}
								}
								JOINT RThumb
								{
OFFSET 0 0.000000 0.000000
CHANNELS 3 Zrotation Xrotation Yrotation
									End Site
									{
OFFSET 0 -0.706500 0.706500
									}
								}
							}
						}
					}
				}
			}
		}
	}
}
MOTION
Frames: 6
Frame Time: 0.008333333333333333
15.746200 15.938800 -20.310100 -0.621600 -10.247200 9.237300 0.000000 0.000000 0.000000 0.262200 -7.797300 -29.238700 7.840200 16.000500 51.985200 2.692000 -9.620900 -29.562800 4.740100 -13.085000 -39.687300 0.000000 0.000000 0.000000 -6.760500 16.668600 -33.239700 -10.199000 -17.520200 60.151300 -1.176700 3.240400 -19.685000 -1.428200 7.556700 -21.375600 2.295600 -0.747200 12.520200 0.394600 -0.746500 5.762400 -0.784900 -0.350100 -1.006600 17.089100 5.526000 7.286400 -16.458500 9.604100 11.864100 -7.833800 5.054800 3.893800 0.000000 -0.000000 0.000000 14.151700 0.803600 -24.326300 154.747400 -36.461100 111.560400 -3.711200 -39.889000 -42.429200 0.000000 0.000000 0.000000 -7.125000 0.000000 0.000000 -52.144100 64.953700 28.600600 0.000000 -0.000000 0.000000 -3.527600 -7.711200 58.613100 -153.657500 -37.544900 -110.904400 -53.708100 -21.366600 -18.002600 0.000000 0.000000 0.000000 7.125000 0.000000 -0.000000 -15.801000 2.134600 -15.822200
15.288626 16.875462 -20.036104 -0.735736 -9.717816 8.363362 0.000000 0.000000 0.000000 -0.687864 -6.717369 -16.799774 3.276916 11.125170 32.709171 1.267482 -6.442919 -20.117543 4.574670 -12.888163 -38.951151 0.000000 0.000000 0.000000 0.637763 9.536709 -30.760689 -7.858191 -16.012810 52.048466 -1.177336 9.267703 -19.511129 -1.695839 8.201372 -23.327456 1.882630 -0.542899 10.112229 0.008871 -0.567980 4.898033 -0.990009 -0.262088 -0.597422 16.743715 5.903441 8.640373 -16.276658 10.171704 10.670848 -7.730434 5.388861 3.393092 0.000000 0.000000 0.000000 14.913469 1.721890 -22.333692 155.667664 -35.513758 112.101236 10.697199 -35.136561 -39.567685 0.000000 0.000000 0.000000 -7.125000 0.000000 0.000000 -33.604251 67.152274 18.774739 0.000000 0.000000 0.000000 -3.511985 -7.540962 58.810310 -153.160465 -38.025762 -110.599881 -51.853284 -20.928575 -18.638224 0.000000 0.000000 0.000000 7.125000 0.000000 0.000000 -14.577559 2.129802 -14.508165
14.553176 17.746055 -19.830519 -0.495474 -7.465947 8.339296 0.000000 0.000000 0.000000 -0.658790 -8.248243 -12.306770 1.939484 8.738790 24.981739 0.056708 1.719956 -5.478523 1.955017 -8.771207 -25.082625 0.000000 0.000000 0.000000 8.086185 6.843739 -26.562758 -5.572167 -13.999715 43.238017 -0.361814 12.461959 -12.924664 -1.598320 7.970125 -22.625493 1.166646 -1.115041 7.524424 -0.116585 -1.409231 3.546457 -0.663341 -0.693246 -0.588253 15.305705 6.603671 8.363320 -16.042904 10.896694 9.657912 -7.361852 5.697161 3.173957 0.000000 0.000000 0.000000 14.907776 3.720377 -20.951383 155.917746 -35.251077 112.245997 17.923037 -34.075454 -34.830215 0.000000 0.000000 0.000000 -7.125000 0.000000 0.000000 -19.637119 65.138895 9.741068 0.000000 0.000000 0.000000 -3.493742 -6.949364 59.608466 -153.503096 -37.695037 -110.810126 -53.226045 -22.895361 -20.071879 0.000000 0.000000 0.000000 7.125000 0.000000 0.000000 -14.973539 -0.494361 -15.643003
13.810645 18.051410 -19.693706 0.282345 -4.391651 6.016743 0.000000 0.000000 0.000000 -3.165882 -7.604294 -13.024845 2.840332 10.431544 30.386031 -0.262570 10.022554 -8.288945 0.596977 -4.945639 -13.753698 0.000000 0.000000 0.000000 12.529463 9.557050 -17.657508 -4.238897 -12.471663 37.421731 -0.359090 5.662722 -10.781813 -0.689486 5.306534 -14.785491 1.890457 -1.230919 6.965716 -0.587243 -1.526674 3.180329 -1.550819 -0.743930 -0.689303 14.481135 6.313646 7.985621 -17.010570 10.395240 8.491243 -7.555336 5.416236 2.803989 0.000000 0.000000 0.000000 15.499069 3.095593 -21.411544 155.434425 -35.756651 111.965268 25.594075 -32.283623 -29.748840 0.000000 0.000000 0.000000 -7.125000 0.000000 0.000000 -6.656675 62.221331 2.794082 0.000000 0.000000 0.000000 -3.953269 -7.404450 60.263774 -154.115869 -37.094050 -111.182307 -54.460851 -24.697288 -20.651445 0.000000 0.000000 0.000000 7.125000 0.000000 0.000000 -15.502583 -1.937843 -16.630673
13.233043 17.815787 -19.602568 0.324705 -1.512899 4.161667 0.000000 0.000000 0.000000 -6.131293 -5.924720 -16.522503 5.206627 13.611023 41.704385 0.557894 3.461582 -15.797001 1.290674 -7.165841 -20.221262 0.000000 0.000000 0.000000 15.864034 7.464660 -13.689996 -3.996422 -12.155464 36.284387 -0.961765 3.530130 -17.682865 -0.825145 5.795730 -16.192915 3.313673 -1.155357 7.191979 0.040351 -1.307168 2.612696 -1.710031 -0.642848 -1.405276 13.950943 5.724291 7.351162 -18.002716 9.612627 8.605783 -7.806122 4.981972 2.820079 0.000000 0.000000 0.000000 12.233718 2.791153 -21.865373 155.546777 -35.639782 112.030873 26.719032 -29.402687 -27.912383 0.000000 0.000000 0.000000 -7.125000 0.000000 0.000000 -4.393347 60.597151 1.674530 0.000000 0.000000 0.000000 -3.484434 -5.383858 57.253557 -155.029155 -36.173969 -111.727186 -37.695949 -2.498890 -9.732011 0.000000 0.000000 0.000000 7.125000 0.000000 0.000000 -7.496281 17.795143 -4.908873
12.745226 17.303320 -19.643801 -0.284669 -2.238872 3.302324 0.000000 0.000000 0.000000 -9.110108 -2.371347 -20.728625 7.970116 16.096090 52.453063 1.368517 -4.281235 -21.123440 2.339188 -9.539461 -27.497881 0.000000 0.000000 0.000000 17.983222 6.891485 -17.521803 -5.856645 -14.286713 44.401296 -1.688698 5.766998 -23.385968 -0.333855 3.713012 -10.270679 3.743373 -0.829160 7.670960 0.759006 -0.816390 2.873378 -1.247952 -0.395738 -1.369284 14.816874 5.844953 6.537415 -19.009311 9.753783 7.974048 -8.251871 5.041307 2.882805 0.000000 0.000000 0.000000 8.823767 6.278303 -21.838830 157.196222 -33.871892 112.970729 30.501851 -27.251981 -25.094730 0.000000 0.000000 0.000000 -7.125000 0.000000 0.000000 1.033872 58.498816 -0.328184 0.000000 0.000000 0.000000 -2.332467 -5.298068 56.255279 -155.883305 -35.287346 -112.226143 -53.229899 -20.886852 -20.924884 0.000000 0.000000 0.000000 7.125000 0.000000 0.000000 -14.744822 -1.654939 -15.687630
